{"title":"The Thin Red Line-720p MP4 AAC BRRip 1998-CC","uid":7114758,"size":2812743750,"categoryP":"video","categoryS":"hd___movies","magnet":"?xt=urn:btih:70086900aa8af486bb1c96f46b6ba67610837a04&amp;dn=The+Thin+Red+Line-720p+MP4+AAC+BRRip+1998-CC&amp;tr=udp%3A%2F%2Ftracker.openbittorrent.com%3A80&amp;tr=udp%3A%2F%2Fopen.demonii.com%3A1337&amp;tr=udp%3A%2F%2Ftracker.coppersurfer.tk%3A6969&amp;tr=udp%3A%2F%2Fexodus.desync.com%3A6969","seeders":1,"leechers":0,"uploader":"Caveman44","files":-1,"time":1332184064,"description":"Source: The.Thin.Red.Line.1998.720p.BluRay.x264-CiNEFiLE\n\nSubs: Arabic, Brazilian, Bulgarian, Croatian, Czech, Danish, Dutch, English, Farsi-Persian, Finnish, French, German, Greek, Indonesian, Italian, Polish, Portuguese, Romanian, Servian, Slovenian., Spanish, Swedish, Turkish and Vietnamese.\n\nSample and Screens included.\n\nGeneral\nComplete name                    : The Thin Red Line-720p MP4 AAC BRRip 1998-CC.mp4\nFormat                           : MPEG-4\nFormat profile                   : Base Media\nCodec ID                         : isom\nFile size                        : 2.59 GiB\nDuration                         : 2h 50mn\nOverall bit rate                 : 2 168 Kbps\nEncoded date                     : UTC 2012-03-18 07:57:42\n\nVideo\nID                               : 1\nFormat                           : AVC\nFormat/Info                      : Advanced Video Codec\nFormat profile                   : &lt;a class=&quot;__cf_email__&quot; href=&quot;/cdn-cgi/l/email-protection&quot; data-cfemail=&quot;afe7c6c8c7efe39c819e&quot;&gt;[email&amp;#160;protected]&lt;/a&gt;&lt;script cf-hash='f9e31' type=&quot;text/javascript&quot;&gt;\n/* &lt;![CDATA[ */!function(){try{var t=&quot;currentScript&quot;in document?document.currentScript:function(){for(var t=document.getElementsByTagName(&quot;script&quot;),e=t.length;e--;)if(t[e].getAttribute(&quot;cf-hash&quot;))return t[e]}();if(t&amp;&amp;t.previousSibling){var e,r,n,i,c=t.previousSibling,a=c.getAttribute(&quot;data-cfemail&quot;);if(a){for(e=&quot;&quot;,r=parseInt(a.substr(0,2),16),n=2;a.length-n;n+=2)i=parseInt(a.substr(n,2),16)^r,e+=String.fromCharCode(i);e=document.createTextNode(e),c.parentNode.replaceChild(e,c)}}}catch(u){}}();/* ]]&gt; */&lt;/script&gt;\nFormat settings, CABAC           : Yes\nFormat settings, ReFrames        : 5 frames\nCodec ID                         : avc1\nCodec ID/Info                    : Advanced Video Coding\nDuration                         : 2h 50mn\nBit rate mode                    : Variable\nBit rate                         : 1 779 Kbps\nNominal bit rate                 : 1 814 Kbps\nMaximum bit rate                 : 15.9 Mbps\nWidth                            : 1 280 pixels\nHeight                           : 544 pixels\nDisplay aspect ratio             : 2.35:1\nFrame rate mode                  : Variable\nFrame rate                       : 23.976 fps\nMinimum frame rate               : 19.048 fps\nMaximum frame rate               : 24.390 fps\nResolution                       : 24 bits\nColorimetry                      : 4:2:0\nScan type                        : Progressive\nBits/(Pixel*Frame)               : 0.107\nStream size                      : 2.12 GiB (82%)\nWriting library                  : x264 core 112\n\nAudio\nID                               : 2\nFormat                           : AAC\nFormat/Info                      : Advanced Audio Codec\nFormat version                   : Version 4\nFormat profile                   : LC\nFormat settings, SBR             : No\nCodec ID                         : 40\nDuration                         : 2h 50mn\nBit rate mode                    : Variable\nBit rate                         : 384 Kbps\nMaximum bit rate                 : 703 Kbps\nChannel(s)                       : 6 channels\nChannel positions                : Front: L C R, Rear: L R, LFE\nSampling rate                    : 48.0 KHz\nResolution                       : 16 bits\nStream size                      : 469 MiB (18%)\n","torrent":{"xt":"urn:btih:70086900aa8af486bb1c96f46b6ba67610837a04","amp;dn":"The+Thin+Red+Line-720p+MP4+AAC+BRRip+1998-CC","amp;tr":["udp%3A%2F%2Ftracker.openbittorrent.com%3A80","udp%3A%2F%2Fopen.demonii.com%3A1337","udp%3A%2F%2Ftracker.coppersurfer.tk%3A6969","udp%3A%2F%2Fexodus.desync.com%3A6969"],"infoHash":"70086900aa8af486bb1c96f46b6ba67610837a04","infoHashBuffer":{"type":"Buffer","data":[112,8,105,0,170,138,244,134,187,28,150,244,107,107,166,118,16,131,122,4]},"announce":[],"urlList":[]}}